<?xml version="1.0" standalone="no"?>
<!DOCTYPE svg PUBLIC "-//W3C//DTD SVG 20010904//EN"
 "http://www.w3.org/TR/2001/REC-SVG-20010904/DTD/svg10.dtd">
<svg version="1.0" xmlns="http://www.w3.org/2000/svg"
 width="900.000000pt" height="900.000000pt" viewBox="0 0 900.000000 900.000000"
 preserveAspectRatio="xMidYMid meet">

<g transform="translate(0.000000,900.000000) scale(0.100000,-0.100000)"
fill="#000000" stroke="none">
<path d="M7222 7449 c-166 -29 -310 -105 -427 -223 -169 -172 -245 -374 -232
-618 6 -126 31 -222 90 -354 61 -136 79 -209 79 -324 0 -234 -110 -598 -575
-1905 -214 -603 -298 -825 -309 -825 -15 0 -99 138 -149 246 -81 170 -146 344
-345 919 -201 579 -274 819 -309 1019 -30 176 -12 282 78 462 30 60 67 147 83
194 26 79 28 96 29 245 0 156 -1 163 -33 255 -172 495 -711 697 -1202 450
-208 -105 -364 -298 -416 -517 -24 -98 -21 -276 5 -375 64 -244 228 -442 481
-579 137 -75 191 -111 247 -167 127 -127 229 -341 417 -874 l44 -127 -116 -82
c-319 -224 -747 -589 -1223 -1042 -276 -263 -392 -367 -415 -373 -30 -8 -73
16 -143 82 -140 129 -231 322 -464 985 -319 904 -400 1186 -401 1394 0 120 15
178 85 317 94 187 119 281 119 449 0 130 -19 223 -68 331 -97 214 -295 383
-528 450 -100 29 -310 31 -416 5 -336 -83 -561 -294 -643 -603 -24 -89 -21
-269 5 -369 68 -266 231 -452 540 -618 277 -149 355 -290 675 -1207 195 -562
306 -922 341 -1107 21 -114 21 -265 -1 -339 -22 -76 -34 -99 -97 -181 -193
-254 -228 -625 -85 -908 111 -221 317 -400 517 -451 89 -23 278 -15 372 15
219 70 405 200 560 390 192 238 255 541 167 808 l-20 61 27 54 c59 116 224
340 362 490 146 158 349 341 563 505 176 136 483 324 499 307 13 -15 76 -219
121 -394 34 -135 43 -187 47 -286 6 -153 -4 -195 -79 -355 -33 -71 -69 -163
-79 -205 -38 -149 -36 -329 5 -489 38 -146 141 -323 240 -413 211 -193 609
-215 925 -51 168 87 278 197 355 354 88 179 115 374 76 547 -34 146 -119 306
-210 392 -17 17 -31 38 -31 49 0 23 101 326 195 587 36 102 86 240 111 308
387 1074 568 1526 717 1786 80 142 155 223 244 265 158 75 432 282 533 403
130 155 133 258 13 608 -77 227 -161 368 -270 449 -79 59 -240 135 -343 161
-96 25 -257 34 -338 19z m287 -589 c43 -12 86 -52 114 -105 31 -59 36 -187 10
-246 -27 -60 -66 -104 -122 -137 -176 -103 -462 98 -411 290 33 121 272 237
409 198z m-2982 -318 c42 -30 90 -105 111 -172 24 -78 23 -213 -2 -264 -31
-61 -67 -78 -157 -73 -168 8 -349 143 -349 259 0 87 106 215 213 257 66 27
141 24 184 -7z m-3030 -202 c42 -25 87 -87 114 -159 31 -77 33 -228 5 -285
-31 -61 -67 -78 -157 -73 -62 3 -88 10 -150 40 -117 58 -199 151 -199 224 0
91 125 229 240 264 48 14 114 10 147 -11z m4366 -3888 c136 -63 202 -142 201
-237 -1 -60 -21 -101 -77 -163 -77 -83 -190 -113 -301 -80 -63 19 -131 92
-152 164 -25 88 -16 199 22 261 16 26 45 58 64 71 51 35 150 28 243 -16z
m-3012 -339 c76 -43 102 -94 97 -188 -3 -39 -11 -84 -19 -100 -20 -41 -70 -67
-142 -72 -116 -10 -200 33 -252 128 -24 45 -30 68 -33 141 -4 82 -3 87 19 98
46 25 76 29 175 26 91 -2 107 -6 155 -33z"/>
</g>
</svg>
