<svg width="20" height="20" viewBox="0 0 20 20" fill="none" xmlns="http://www.w3.org/2000/svg">
<g clip-path="url(#clip0_8_331)">
<path d="M3.95111 3.44667C4.32 3.51111 4.64 3.68 4.9 3.94222C5.27556 4.32444 5.44445 4.77333 5.41556 5.31556C5.40222 5.59556 5.34667 5.80889 5.21556 6.10222C5.08 6.40444 5.04 6.56667 5.04 6.82222C5.04 7.34222 5.28445 8.15111 6.31778 11.0556C6.79333 12.3956 6.98 12.8889 7.00445 12.8889C7.03778 12.8889 7.22445 12.5822 7.33556 12.3422C7.51556 11.9644 7.66 11.5778 8.10222 10.3C8.54889 9.01333 8.71111 8.48 8.78889 8.03556C8.85556 7.64444 8.81556 7.40889 8.61556 7.00889C8.54889 6.87556 8.46667 6.68222 8.43111 6.57778C8.37333 6.40222 8.36889 6.36444 8.36667 6.03333C8.36667 5.68667 8.36889 5.67111 8.44 5.46667C8.82222 4.36667 10.02 3.91778 11.1111 4.46667C11.5733 4.7 11.92 5.12889 12.0356 5.61556C12.0889 5.83333 12.0822 6.22889 12.0244 6.44889C11.8822 6.99111 11.5178 7.43111 10.9556 7.73556C10.6511 7.90222 10.5311 7.98222 10.4067 8.10667C10.1244 8.38889 9.89778 8.86444 9.48 10.0489L9.38222 10.3311L9.64 10.5133C10.3489 11.0111 11.3 11.8222 12.3578 12.8289C12.9711 13.4133 13.2289 13.6444 13.28 13.6578C13.3467 13.6756 13.4422 13.6222 13.5978 13.4756C13.9089 13.1889 14.1111 12.76 14.6289 11.2867C15.3378 9.27778 15.5178 8.65111 15.52 8.18889C15.52 7.92222 15.4867 7.79333 15.3311 7.48444C15.1222 7.06889 15.0667 6.86 15.0667 6.48667C15.0667 6.19778 15.1089 5.99111 15.2178 5.75111C15.4333 5.27556 15.8733 4.9 16.3911 4.75111C16.6133 4.68667 17.08 4.68222 17.3156 4.74C18.0622 4.92444 18.5622 5.39333 18.7444 6.08C18.7978 6.27778 18.7911 6.67778 18.7333 6.9C18.5822 7.49111 18.22 7.90444 17.5333 8.27333C16.9178 8.60444 16.7444 8.91778 16.0333 10.9556C15.6 12.2044 15.3533 13.0044 15.2756 13.4156C15.2289 13.6689 15.2289 14.0044 15.2778 14.1689C15.3267 14.3378 15.3533 14.3889 15.4933 14.5711C15.9222 15.1356 16 15.96 15.6822 16.5889C15.4356 17.08 14.9778 17.4778 14.5333 17.5911C14.3356 17.6422 13.9156 17.6244 13.7067 17.5578C13.22 17.4022 12.8067 17.1133 12.4622 16.6911C12.0356 16.1622 11.8956 15.4889 12.0911 14.8956L12.1356 14.76L12.0756 14.64C11.9444 14.3822 11.5778 13.8844 11.2711 13.5511C10.9467 13.2 10.4956 12.7933 10.02 12.4289C9.62889 12.1267 8.94667 11.7089 8.91111 11.7467C8.88222 11.78 8.74222 12.2333 8.64222 12.6222C8.56667 12.9222 8.54667 13.0378 8.53778 13.2578C8.52445 13.5978 8.54667 13.6911 8.71333 14.0467C8.78667 14.2044 8.86667 14.4089 8.88889 14.5022C8.97333 14.8333 8.96889 15.2333 8.87778 15.5889C8.79333 15.9133 8.56445 16.3067 8.34445 16.5067C7.87556 16.9356 6.99111 16.9844 6.28889 16.62C5.91556 16.4267 5.67111 16.1822 5.5 15.8333C5.30445 15.4356 5.24445 15.0022 5.33111 14.6178C5.40667 14.2933 5.59556 13.9378 5.79778 13.7467C5.83556 13.7089 5.86667 13.6622 5.86667 13.6378C5.86667 13.5867 5.64222 12.9133 5.43333 12.3333C5.35333 12.1067 5.24222 11.8 5.18667 11.6489C4.32667 9.26222 3.92445 8.25778 3.59333 7.68C3.41556 7.36444 3.24889 7.18444 3.05111 7.09111C2.7 6.92444 2.09111 6.46444 1.86667 6.19556C1.57778 5.85111 1.57111 5.62222 1.83778 4.84444C2.00889 4.34 2.19556 4.02667 2.43778 3.84667C2.61333 3.71556 2.97111 3.54667 3.2 3.48889C3.41333 3.43333 3.77111 3.41333 3.95111 3.44667ZM3.31333 4.75556C3.21778 4.78222 3.12222 4.87111 3.06 4.98889C2.99111 5.12 2.98 5.40444 3.03778 5.53556C3.09778 5.66889 3.18445 5.76667 3.30889 5.84C3.7 6.06889 4.33556 5.62222 4.22222 5.19556C4.14889 4.92667 3.61778 4.66889 3.31333 4.75556ZM9.94 5.46222C9.84667 5.52889 9.74 5.69556 9.69333 5.84444C9.64 6.01778 9.64222 6.31778 9.69778 6.43111C9.76667 6.56667 9.84667 6.60444 10.0467 6.59333C10.42 6.57556 10.8222 6.27556 10.8222 6.01778C10.8222 5.82444 10.5867 5.54 10.3489 5.44667C10.2022 5.38667 10.0356 5.39333 9.94 5.46222ZM16.6733 5.91111C16.58 5.96667 16.48 6.10444 16.42 6.26444C16.3511 6.43556 16.3467 6.77111 16.4089 6.89778C16.4778 7.03333 16.5578 7.07111 16.7578 7.06C16.8956 7.05333 16.9533 7.03778 17.0911 6.97111C17.3511 6.84222 17.5333 6.63556 17.5333 6.47333C17.5333 6.27111 17.2556 5.96444 17 5.88667C16.8933 5.85556 16.7467 5.86444 16.6733 5.91111ZM6.97111 14.5511C6.66889 14.6911 6.52222 14.8667 6.52445 15.0778C6.52667 15.2111 6.57111 15.3022 6.69556 15.44C6.86667 15.6244 7.11778 15.6911 7.36445 15.6178C7.50445 15.5756 7.65556 15.4133 7.70222 15.2533C7.75778 15.0578 7.73778 14.8111 7.65333 14.6733C7.61778 14.6156 7.55333 14.5444 7.51111 14.5156C7.39778 14.4378 7.17778 14.4533 6.97111 14.5511ZM13.6644 15.3044C13.4956 15.4 13.4378 15.5133 13.4489 15.7222C13.4556 15.8089 13.4733 15.9089 13.4911 15.9444C13.5356 16.0356 13.6467 16.0933 13.8067 16.1044C14.0644 16.1267 14.2511 16.0311 14.3667 15.82C14.42 15.72 14.4333 15.6689 14.44 15.5067C14.4489 15.3244 14.4467 15.3133 14.3978 15.2889C14.2956 15.2333 14.2289 15.2244 14.0089 15.2311C13.8067 15.2356 13.7711 15.2444 13.6644 15.3044Z" fill="white"/>
</g>
<defs>
<clipPath id="clip0_8_331">
<rect width="20" height="20" fill="white"/>
</clipPath>
</defs>
</svg>
