<svg width="13" height="13" viewBox="0 0 13 13" fill="none" xmlns="http://www.w3.org/2000/svg">
<path fill-rule="evenodd" clip-rule="evenodd" d="M5.84162 5.33882C5.554 5.6139 5.36845 5.99775 5.36845 6.43987V6.80165C5.36814 6.80285 5.36784 6.80404 5.36753 6.80524C5.31981 6.99471 5.30718 7.06769 5.30157 7.20663C5.2945 7.38684 5.30325 7.45733 5.36845 7.60805V9.01768C5.31086 9.11341 5.24454 9.19936 5.17946 9.25853C4.88333 9.5294 4.32474 9.56028 3.88124 9.33011C3.64545 9.208 3.49107 9.05362 3.383 8.83327C3.25949 8.58205 3.2216 8.30837 3.27634 8.06557C3.32405 7.86066 3.44335 7.6361 3.57107 7.5154C3.59493 7.49154 3.61458 7.46207 3.61458 7.44663C3.61458 7.41435 3.47282 6.98909 3.3409 6.62278C3.29037 6.47963 3.2202 6.28595 3.18511 6.19051C2.64196 4.68317 2.38793 4.04879 2.17881 3.68388C2.06653 3.48459 1.96127 3.37091 1.83636 3.31196C1.61461 3.2067 1.23005 2.91618 1.0883 2.74636C0.905848 2.52882 0.901637 2.38426 1.07006 1.89304C1.17812 1.57444 1.29602 1.37655 1.449 1.26287C1.55987 1.18007 1.78583 1.0734 1.93039 1.03691C2.06513 1.00182 2.29109 0.989191 2.40477 1.01024C2.63775 1.05094 2.83985 1.15761 3.00406 1.32322C3.24125 1.56462 3.34791 1.84812 3.32967 2.19058C3.32125 2.36741 3.28616 2.50215 3.20335 2.68741C3.11774 2.87828 3.09248 2.98074 3.09248 3.14214C3.09248 3.47055 3.24686 3.98142 3.89948 5.81578C4.19983 6.66208 4.31772 6.97365 4.33316 6.97365C4.35421 6.97365 4.47211 6.77997 4.54228 6.6284C4.65596 6.3898 4.74719 6.1456 5.02648 5.33859C5.30858 4.52598 5.41104 4.18914 5.46016 3.90844C5.50226 3.66143 5.477 3.51266 5.35069 3.26003C5.30858 3.17582 5.25665 3.05372 5.2342 2.98776C5.19771 2.87688 5.1949 2.85302 5.1935 2.6439C5.1935 2.42496 5.1949 2.41513 5.23981 2.28601C5.48121 1.59129 6.23769 1.30778 6.9268 1.65444C7.21873 1.80181 7.43767 2.07268 7.51065 2.38005C7.54434 2.51759 7.54013 2.76741 7.50364 2.90635C7.41381 3.2488 7.18364 3.52669 6.82856 3.71897C6.63628 3.82423 6.56049 3.87476 6.4819 3.95335C6.30366 4.1316 6.1605 4.43194 5.89664 5.18L5.84162 5.33882ZM9.83499 6.34365C9.89295 6.16786 9.95971 5.97112 10.0355 5.75262C10.4846 4.46563 10.5941 4.26773 10.9829 4.05861C11.4166 3.82564 11.6453 3.56459 11.7408 3.19126C11.7773 3.05091 11.7815 2.79828 11.7478 2.67337C11.6327 2.2397 11.3169 1.94356 10.8453 1.82707C10.6966 1.79058 10.4018 1.79339 10.2615 1.83409C9.93447 1.92812 9.65658 2.16531 9.52044 2.46566C9.45167 2.61723 9.42501 2.74776 9.42501 2.93021C9.42501 3.166 9.46009 3.29793 9.59202 3.56038C9.69027 3.75546 9.71132 3.83686 9.71132 4.00528C9.70992 4.2956 9.59748 4.68865 9.15587 5.94092L9.83499 6.34365ZM9.56302 7.27553L8.81904 6.83433C8.70055 7.10623 8.6103 7.24006 8.4973 7.34418C8.39906 7.43681 8.33871 7.47049 8.29661 7.45926C8.26433 7.45084 8.10152 7.30488 7.71416 6.93576C7.39109 6.6283 7.08378 6.34973 6.8019 6.10845C6.71158 6.1967 6.65381 6.31772 6.65381 6.4582V7.02746C6.79398 7.15263 6.92166 7.27697 7.02785 7.39189C7.22154 7.60242 7.45311 7.9168 7.53592 8.0796L7.57381 8.15539L7.54574 8.241C7.42223 8.61573 7.51065 9.04099 7.78012 9.37502C7.99766 9.64168 8.25871 9.82414 8.56607 9.92238C8.698 9.96448 8.96326 9.97571 9.08817 9.94343C9.36887 9.87185 9.65799 9.62063 9.81377 9.31046C10.0145 8.91327 9.96535 8.39258 9.69448 8.03609C9.60606 7.92101 9.58922 7.88873 9.55834 7.78206C9.52746 7.67821 9.52746 7.46628 9.55694 7.30628C9.55881 7.29639 9.56083 7.28614 9.56302 7.27553ZM1.84197 1.98426C1.88127 1.90988 1.94162 1.85374 2.00197 1.8369C2.19425 1.78216 2.52968 1.94497 2.576 2.11479C2.64757 2.38426 2.24618 2.66636 1.99916 2.5218C1.92057 2.47548 1.86583 2.41373 1.82794 2.32952C1.79145 2.24671 1.79846 2.06707 1.84197 1.98426ZM6.03138 2.5246C6.06085 2.43057 6.12822 2.32531 6.18717 2.28321C6.24752 2.2397 6.35278 2.23549 6.44541 2.27338C6.59558 2.33233 6.74435 2.51197 6.74435 2.63408C6.74435 2.79688 6.49032 2.98635 6.25453 2.99758C6.12822 3.0046 6.07769 2.98074 6.03419 2.89512C5.9991 2.82355 5.9977 2.63408 6.03138 2.5246ZM10.2797 2.78986C10.3176 2.68881 10.3808 2.6018 10.4397 2.56671C10.486 2.53724 10.5787 2.53162 10.646 2.55127C10.8074 2.60039 10.9829 2.79407 10.9829 2.92179C10.9829 3.02425 10.8678 3.15477 10.7036 3.23617C10.6166 3.27828 10.5801 3.2881 10.4931 3.29231C10.3667 3.29933 10.3162 3.27547 10.2727 3.18986C10.2334 3.10986 10.2362 2.89793 10.2797 2.78986ZM4.03001 8.35609C4.0286 8.22276 4.12123 8.11188 4.31211 8.02346C4.44263 7.96171 4.58158 7.95188 4.65316 8.00101C4.67982 8.01925 4.72052 8.06416 4.74298 8.10065C4.79631 8.18767 4.80894 8.34346 4.77386 8.46696C4.74438 8.56802 4.64895 8.67047 4.56053 8.69714C4.40474 8.74345 4.24614 8.70135 4.13808 8.58486C4.05948 8.49784 4.03141 8.4403 4.03001 8.35609ZM8.40327 8.7631C8.39625 8.63117 8.43274 8.55959 8.53941 8.49924C8.60678 8.46135 8.62923 8.45574 8.75695 8.45293C8.89589 8.44872 8.938 8.45433 9.00256 8.48942C9.03344 8.50486 9.03484 8.51188 9.02922 8.62696C9.02501 8.72942 9.01659 8.7617 8.98291 8.82485C8.90993 8.95818 8.79204 9.01853 8.62923 9.0045C8.52818 8.99748 8.45801 8.96099 8.42994 8.90345C8.41871 8.88099 8.40748 8.81784 8.40327 8.7631Z" fill="black"/>
<path fill-rule="evenodd" clip-rule="evenodd" d="M6.00003 7.13717C6.00003 6.07456 7.16854 5.42645 8.06997 5.98908L11.6807 8.24273C12.5297 8.77266 12.5297 10.009 11.6807 10.5389L8.06997 12.7925C7.16854 13.3552 6.00003 12.7071 6.00003 11.6444V7.13717ZM7.59225 6.75447C7.29178 6.56693 6.90227 6.78296 6.90227 7.13717V11.6444C6.90227 11.9987 7.29178 12.2147 7.59225 12.0272L11.203 9.77347C11.486 9.5969 11.486 9.18477 11.203 9.00812L7.59225 6.75447Z" fill="#208A3C"/>
<path d="M6.90225 7.13717C6.90225 6.78297 7.29176 6.56694 7.59223 6.75448L11.203 9.00812C11.486 9.18477 11.486 9.59689 11.203 9.77355L7.59223 12.0272C7.29176 12.2147 6.90225 11.9987 6.90225 11.6444V7.13717Z" fill="#F2FCF3"/>
</svg>
