<svg width="20" height="20" viewBox="0 0 20 20" fill="none" xmlns="http://www.w3.org/2000/svg">
<g clip-path="url(#clip0_13_407)">
<path fill-rule="evenodd" clip-rule="evenodd" d="M8.74921 7.86989C8.2938 8.30544 8 8.91323 8 9.61326V10.1861C7.99951 10.188 7.99903 10.1899 7.99855 10.1918C7.92299 10.4918 7.90299 10.6073 7.8941 10.8273C7.88291 11.1126 7.89676 11.2243 8 11.4629V13.6949C7.90881 13.8464 7.80381 13.9825 7.70077 14.0762C7.23188 14.5051 6.34743 14.554 5.64521 14.1896C5.27188 13.9962 5.02744 13.7518 4.85632 13.4029C4.66077 13.0051 4.60077 12.5718 4.68744 12.1873C4.76299 11.8629 4.95188 11.5073 5.1541 11.3162C5.19188 11.2784 5.22299 11.2318 5.22299 11.2073C5.22299 11.1562 4.99855 10.4829 4.78966 9.90288C4.70966 9.67622 4.59855 9.36955 4.54299 9.21844C3.68299 6.83177 3.28077 5.82733 2.94966 5.24955C2.77188 4.93399 2.60521 4.75399 2.40744 4.66066C2.05632 4.49399 1.44744 4.03399 1.22299 3.76511C0.934101 3.42066 0.927435 3.19177 1.1941 2.41399C1.36521 1.90955 1.55188 1.59622 1.7941 1.41622C1.96966 1.2851 2.32744 1.11622 2.55632 1.05844C2.76966 1.00288 3.12744 0.982882 3.30744 1.01622C3.67632 1.08066 3.99632 1.24955 4.25632 1.51177C4.63188 1.89399 4.80077 2.34288 4.77188 2.88511C4.75855 3.1651 4.70299 3.37844 4.57188 3.67177C4.43632 3.97399 4.39632 4.13622 4.39632 4.39177C4.39632 4.91177 4.64077 5.72066 5.6741 8.6251C6.14966 9.96511 6.33632 10.4584 6.36077 10.4584C6.3941 10.4584 6.58077 10.1518 6.69188 9.91177C6.87188 9.53399 7.01632 9.14733 7.45855 7.86955C7.90521 6.58288 8.06744 6.04955 8.14521 5.60511C8.21188 5.21399 8.17188 4.97844 7.97188 4.57844C7.90521 4.44511 7.82299 4.25177 7.78744 4.14733C7.72966 3.97177 7.72521 3.93399 7.72299 3.60288C7.72299 3.25622 7.72521 3.24066 7.79632 3.03622C8.17855 1.93622 9.37632 1.48733 10.4674 2.03622C10.9297 2.26955 11.2763 2.69844 11.3919 3.18511C11.4452 3.40288 11.4385 3.79844 11.3808 4.01844C11.2385 4.56066 10.8741 5.00066 10.3119 5.30511C10.0074 5.47177 9.88744 5.55177 9.76299 5.67622C9.48077 5.95844 9.2541 6.43399 8.83632 7.61844L8.74921 7.86989ZM15.0721 9.46092C15.1639 9.18258 15.2696 8.87106 15.3897 8.5251C16.1008 6.48733 16.2741 6.17399 16.8897 5.84288C17.5763 5.47399 17.9385 5.06066 18.0897 4.46955C18.1474 4.24733 18.1541 3.84733 18.1008 3.64955C17.9185 2.96288 17.4185 2.49399 16.6719 2.30955C16.4363 2.25177 15.9697 2.25622 15.7474 2.32066C15.2297 2.46955 14.7897 2.84511 14.5741 3.32066C14.4652 3.56066 14.423 3.76733 14.423 4.05622C14.423 4.42955 14.4785 4.63844 14.6874 5.05399C14.843 5.36288 14.8763 5.49177 14.8763 5.75844C14.8741 6.21812 14.6961 6.84045 13.9968 8.82324L15.0721 9.46092ZM14.6415 10.9364L13.4635 10.2378C13.2759 10.6684 13.133 10.8802 12.9541 11.0451C12.7985 11.1918 12.703 11.2451 12.6363 11.2273C12.5852 11.214 12.3274 10.9829 11.7141 10.3984C11.2026 9.91162 10.716 9.47054 10.2697 9.08851C10.1267 9.22824 10.0352 9.41985 10.0352 9.64229V10.5436C10.2571 10.7418 10.4593 10.9387 10.6274 11.1207C10.9341 11.454 11.3008 11.9518 11.4319 12.2095L11.4919 12.3296L11.4474 12.4651C11.2519 13.0584 11.3919 13.7318 11.8185 14.2607C12.163 14.6829 12.5763 14.9718 13.063 15.1273C13.2719 15.194 13.6919 15.2118 13.8897 15.1607C14.3341 15.0473 14.7919 14.6496 15.0385 14.1584C15.3563 13.5296 15.2785 12.7051 14.8497 12.1407C14.7097 11.9584 14.683 11.9073 14.6341 11.7384C14.5852 11.574 14.5852 11.2384 14.6319 10.9851C14.6348 10.9694 14.6381 10.9532 14.6415 10.9364ZM2.41632 2.55844C2.47855 2.44066 2.5741 2.35177 2.66966 2.3251C2.9741 2.23844 3.50521 2.49622 3.57855 2.76511C3.69188 3.19177 3.05632 3.63844 2.66521 3.40955C2.54077 3.33622 2.4541 3.23844 2.3941 3.10511C2.33632 2.97399 2.34743 2.68955 2.41632 2.55844ZM9.04966 3.41399C9.09632 3.26511 9.20299 3.09844 9.29632 3.03177C9.39188 2.96288 9.55855 2.95622 9.70521 3.01622C9.94299 3.10955 10.1785 3.39399 10.1785 3.58733C10.1785 3.84511 9.77632 4.14511 9.40299 4.16288C9.20299 4.17399 9.12299 4.13622 9.0541 4.00066C8.99855 3.88733 8.99632 3.58733 9.04966 3.41399ZM15.7763 3.83399C15.8363 3.67399 15.9363 3.53622 16.0297 3.48066C16.103 3.43399 16.2497 3.42511 16.3563 3.45622C16.6119 3.53399 16.8897 3.84066 16.8897 4.04288C16.8897 4.2051 16.7074 4.41177 16.4474 4.54066C16.3097 4.60733 16.2519 4.62288 16.1141 4.62955C15.9141 4.64066 15.8341 4.60288 15.7652 4.46733C15.703 4.34066 15.7074 4.00511 15.7763 3.83399ZM5.88077 12.6473C5.87855 12.4362 6.02521 12.2607 6.32744 12.1207C6.5341 12.0229 6.7541 12.0073 6.86744 12.0851C6.90966 12.114 6.9741 12.1851 7.00966 12.2429C7.0941 12.3807 7.1141 12.6273 7.05855 12.8229C7.01188 12.9829 6.86077 13.1451 6.72077 13.1873C6.4741 13.2607 6.22299 13.194 6.05188 13.0096C5.92744 12.8718 5.88299 12.7807 5.88077 12.6473ZM12.8052 13.2918C12.7941 13.0829 12.8519 12.9696 13.0208 12.874C13.1274 12.814 13.163 12.8051 13.3652 12.8007C13.5852 12.794 13.6519 12.8029 13.7541 12.8584C13.803 12.8829 13.8052 12.894 13.7963 13.0762C13.7897 13.2384 13.7763 13.2896 13.723 13.3896C13.6074 13.6007 13.4208 13.6962 13.163 13.674C13.003 13.6629 12.8919 13.6051 12.8474 13.514C12.8297 13.4784 12.8119 13.3784 12.8052 13.2918Z" fill="white"/>
<path fill-rule="evenodd" clip-rule="evenodd" d="M9 10.7174C9 9.03486 10.8502 8.00868 12.2775 8.89952L17.9946 12.4678C19.3389 13.3069 19.3389 15.2644 17.9946 16.1036L12.2775 19.6718C10.8502 20.5627 9 19.5366 9 17.854V10.7174ZM11.5211 10.1114C11.0453 9.81446 10.4286 10.1565 10.4286 10.7174V17.854C10.4286 18.4148 11.0453 18.7568 11.5211 18.46L17.2381 14.8916C17.6863 14.612 17.6863 13.9594 17.2381 13.6797L11.5211 10.1114Z" fill="#57965C"/>
<path d="M10.4286 10.7174C10.4286 10.1565 11.0453 9.81449 11.521 10.1114L17.2381 13.6798C17.6863 13.9595 17.6863 14.612 17.2381 14.8917L11.521 18.46C11.0453 18.757 10.4286 18.4148 10.4286 17.854V10.7174Z" fill="#253627"/>
</g>
<defs>
<clipPath id="clip0_13_407">
<rect width="20" height="20" fill="white"/>
</clipPath>
</defs>
</svg>
