<svg width="16" height="16" viewBox="0 0 16 16" fill="none" xmlns="http://www.w3.org/2000/svg">
<g clip-path="url(#clip0_13_394)">
<path fill-rule="evenodd" clip-rule="evenodd" d="M6.99935 6.2959C6.63503 6.64434 6.39999 7.13057 6.39999 7.6906V8.14889C6.3996 8.1504 6.39921 8.1519 6.39882 8.15341C6.33838 8.39341 6.32238 8.48585 6.31527 8.66185C6.30632 8.89011 6.3174 8.9794 6.39999 9.17031V10.9559C6.32704 11.0771 6.24304 11.186 6.1606 11.261C5.78549 11.6041 5.07794 11.6432 4.51616 11.3516C4.21749 11.197 4.02194 11.0014 3.88505 10.7223C3.7286 10.4041 3.6806 10.0574 3.74994 9.74985C3.81038 9.49029 3.96149 9.20585 4.12327 9.05296C4.15349 9.02274 4.17838 8.98541 4.17838 8.96585C4.17838 8.92496 3.99883 8.38629 3.83171 7.92229C3.76771 7.74096 3.67882 7.49563 3.63438 7.37474C2.94638 5.46541 2.6246 4.66185 2.35971 4.19963C2.21749 3.94718 2.08416 3.80318 1.92594 3.72852C1.64505 3.59518 1.15794 3.22718 0.978381 3.01207C0.74727 2.73652 0.741937 2.55341 0.95527 1.93118C1.09216 1.52763 1.24149 1.27696 1.43527 1.13296C1.57571 1.02807 1.86194 0.892961 2.04505 0.846739C2.21571 0.802295 2.50194 0.786294 2.64594 0.812961C2.94105 0.864516 3.19705 0.999628 3.40505 1.20941C3.70549 1.51518 3.8406 1.87429 3.81749 2.30807C3.80682 2.53207 3.76238 2.70274 3.65749 2.93741C3.54905 3.17918 3.51705 3.30896 3.51705 3.51341C3.51705 3.92941 3.7126 4.57652 4.53927 6.90007C4.91971 7.97207 5.06905 8.36674 5.0886 8.36674C5.11527 8.36674 5.2646 8.12141 5.35349 7.92941C5.49749 7.62718 5.61305 7.31785 5.96682 6.29563C6.32416 5.26629 6.45394 4.83963 6.51616 4.48407C6.56949 4.17118 6.53749 3.98274 6.37749 3.66274C6.32416 3.55607 6.25838 3.40141 6.22994 3.31785C6.18371 3.17741 6.18016 3.14718 6.17838 2.88229C6.17838 2.60496 6.18016 2.59252 6.23705 2.42896C6.54282 1.54896 7.50105 1.18985 8.37394 1.62896C8.74371 1.81563 9.02105 2.15874 9.11349 2.54807C9.15616 2.72229 9.15082 3.03874 9.1046 3.21474C8.99082 3.64852 8.69927 4.00052 8.24949 4.24407C8.00594 4.37741 7.90994 4.44141 7.81038 4.54096C7.5846 4.76674 7.40327 5.14718 7.06905 6.09474L6.99935 6.2959ZM12.0577 7.56872C12.1311 7.34605 12.2157 7.09684 12.3117 6.82007C12.8806 5.18985 13.0193 4.93918 13.5117 4.67429C14.061 4.37918 14.3508 4.04852 14.4717 3.57563C14.5179 3.39785 14.5233 3.07785 14.4806 2.91963C14.3348 2.37029 13.9348 1.99518 13.3375 1.84763C13.149 1.80141 12.7757 1.80496 12.5979 1.85652C12.1837 1.97563 11.8317 2.27607 11.6593 2.65652C11.5722 2.84852 11.5384 3.01385 11.5384 3.24496C11.5384 3.54363 11.5828 3.71074 11.7499 4.04318C11.8744 4.29029 11.901 4.39341 11.901 4.60674C11.8993 4.97449 11.7568 5.47235 11.1975 7.05858L12.0577 7.56872ZM11.7132 8.74912L10.7708 8.19026C10.6207 8.53468 10.5064 8.70419 10.3633 8.83607C10.2388 8.95341 10.1624 8.99607 10.109 8.98185C10.0682 8.97118 9.86194 8.78629 9.37127 8.31874C8.96204 7.92929 8.57277 7.57642 8.21572 7.27079C8.10131 7.38258 8.02813 7.53587 8.02813 7.71382V8.43489C8.20569 8.59344 8.36742 8.75095 8.50194 8.89652C8.74727 9.16318 9.0406 9.56141 9.14549 9.76763L9.19349 9.86363L9.15794 9.97207C9.00149 10.4467 9.11349 10.9854 9.45483 11.4085C9.73038 11.7463 10.061 11.9774 10.4504 12.1019C10.6175 12.1552 10.9535 12.1694 11.1117 12.1285C11.4673 12.0379 11.8335 11.7196 12.0308 11.3267C12.285 10.8236 12.2228 10.1641 11.8797 9.71252C11.7677 9.56674 11.7464 9.52585 11.7073 9.39074C11.6682 9.25918 11.6682 8.99074 11.7055 8.78807C11.7079 8.77554 11.7104 8.76256 11.7132 8.74912ZM1.93305 2.04674C1.98283 1.95252 2.05927 1.88141 2.13571 1.86007C2.37927 1.79074 2.80416 1.99696 2.86282 2.21207C2.95349 2.55341 2.44505 2.91074 2.13216 2.72763C2.0326 2.66896 1.96327 2.59074 1.91527 2.48407C1.86905 2.37918 1.87794 2.15163 1.93305 2.04674ZM7.23971 2.73118C7.27705 2.61207 7.36238 2.47874 7.43705 2.42541C7.51349 2.37029 7.64683 2.36496 7.76416 2.41296C7.95438 2.48763 8.14283 2.71518 8.14283 2.86985C8.14283 3.07607 7.82105 3.31607 7.52238 3.33029C7.36238 3.33918 7.29838 3.30896 7.24327 3.20052C7.19883 3.10985 7.19705 2.86985 7.23971 2.73118ZM12.621 3.06718C12.669 2.93918 12.749 2.82896 12.8237 2.78452C12.8824 2.74718 12.9997 2.74007 13.085 2.76496C13.2895 2.82718 13.5117 3.07252 13.5117 3.23429C13.5117 3.36407 13.3659 3.52941 13.1579 3.63252C13.0477 3.68585 13.0015 3.69829 12.8913 3.70363C12.7313 3.71252 12.6673 3.68229 12.6122 3.57385C12.5624 3.47252 12.5659 3.20407 12.621 3.06718ZM4.7046 10.1179C4.70282 9.94896 4.82016 9.80852 5.06194 9.69652C5.22727 9.61829 5.40327 9.60585 5.49394 9.66807C5.52771 9.69118 5.57927 9.74807 5.60771 9.79429C5.67527 9.90452 5.69127 10.1019 5.64683 10.2583C5.60949 10.3863 5.4886 10.5161 5.3766 10.5498C5.17927 10.6085 4.97838 10.5552 4.84149 10.4076C4.74194 10.2974 4.70638 10.2245 4.7046 10.1179ZM10.2442 10.6334C10.2353 10.4663 10.2815 10.3756 10.4166 10.2992C10.5019 10.2512 10.5304 10.2441 10.6922 10.2405C10.8682 10.2352 10.9215 10.2423 11.0033 10.2867C11.0424 10.3063 11.0442 10.3152 11.037 10.461C11.0317 10.5907 11.021 10.6316 10.9784 10.7116C10.8859 10.8805 10.7366 10.957 10.5304 10.9392C10.4024 10.9303 10.3135 10.8841 10.2779 10.8112C10.2637 10.7827 10.2495 10.7027 10.2442 10.6334Z" fill="black"/>
<path fill-rule="evenodd" clip-rule="evenodd" d="M7.19998 8.57386C7.19998 7.22787 8.68012 6.40692 9.82195 7.1196L14.3956 9.97426C15.4711 10.6455 15.4711 12.2115 14.3956 12.8828L9.82195 15.7375C8.68012 16.4501 7.19998 15.6292 7.19998 14.2832V8.57386ZM9.21683 8.08911C8.83622 7.85155 8.34284 8.1252 8.34284 8.57386V14.2832C8.34284 14.7319 8.83622 15.0055 9.21683 14.768L13.7905 11.9132C14.149 11.6896 14.149 11.1675 13.7905 10.9438L9.21683 8.08911Z" fill="#208A3C"/>
<path d="M8.34283 8.57389C8.34283 8.12523 8.83622 7.85159 9.21682 8.08914L13.7905 10.9438C14.149 11.1676 14.149 11.6896 13.7905 11.9134L9.21682 14.768C8.83622 15.0056 8.34283 14.7319 8.34283 14.2832V8.57389Z" fill="#F2FCF3"/>
</g>
<defs>
<clipPath id="clip0_13_394">
<rect width="16" height="16" fill="white"/>
</clipPath>
</defs>
</svg>
