<svg width="13" height="13" viewBox="0 0 13 13" fill="none" xmlns="http://www.w3.org/2000/svg">
<path fill-rule="evenodd" clip-rule="evenodd" d="M5.89414 5.33883C5.60652 5.61391 5.42098 5.99776 5.42098 6.43987V6.80163C5.42067 6.80283 5.42036 6.80403 5.42005 6.80524C5.37233 6.99471 5.3597 7.06769 5.35409 7.20663C5.34702 7.38684 5.35577 7.45733 5.42098 7.60807V9.01767C5.36339 9.1134 5.29707 9.19936 5.23198 9.25853C4.93585 9.5294 4.37726 9.56028 3.93376 9.33011C3.69797 9.208 3.54359 9.05362 3.43552 8.83327C3.31202 8.58205 3.27412 8.30837 3.32886 8.06557C3.37658 7.86066 3.49587 7.6361 3.62359 7.5154C3.64745 7.49154 3.6671 7.46207 3.6671 7.44663C3.6671 7.41435 3.52535 6.98909 3.39342 6.62278C3.34289 6.47963 3.27272 6.28595 3.23763 6.19051C2.69448 4.68317 2.44045 4.04879 2.23133 3.68388C2.11905 3.48459 2.01379 3.37091 1.88888 3.31196C1.66713 3.2067 1.28257 2.91618 1.14082 2.74636C0.958369 2.52882 0.954159 2.38426 1.12258 1.89304C1.23065 1.57444 1.34854 1.37655 1.50152 1.26287C1.61239 1.18007 1.83836 1.0734 1.98291 1.03691C2.11765 1.00182 2.34361 0.989191 2.45729 1.01024C2.69027 1.05094 2.89237 1.15761 3.05658 1.32322C3.29377 1.56462 3.40044 1.84812 3.38219 2.19058C3.37377 2.36741 3.33868 2.50215 3.25588 2.68741C3.17026 2.87828 3.145 2.98074 3.145 3.14214C3.145 3.47055 3.29938 3.98142 3.952 5.81578C4.25235 6.66208 4.37024 6.97365 4.38568 6.97365C4.40673 6.97365 4.52463 6.77997 4.5948 6.6284C4.70848 6.3898 4.79971 6.1456 5.079 5.33859C5.3611 4.52598 5.46356 4.18914 5.51268 3.90844C5.55479 3.66143 5.52952 3.51266 5.40321 3.26003C5.3611 3.17582 5.30918 3.05372 5.28672 2.98776C5.25023 2.87688 5.24742 2.85302 5.24602 2.6439C5.24602 2.42496 5.24742 2.41513 5.29233 2.28601C5.53373 1.59129 6.29021 1.30778 6.97932 1.65444C7.27125 1.80181 7.49019 2.07268 7.56317 2.38005C7.59686 2.51759 7.59265 2.76741 7.55616 2.90635C7.46633 3.2488 7.23616 3.52669 6.88108 3.71897C6.6888 3.82423 6.61301 3.87476 6.53442 3.95335C6.35618 4.1316 6.21302 4.43194 5.94917 5.18L5.89414 5.33883ZM9.88751 6.34365C9.94547 6.16786 10.0122 5.97112 10.088 5.75262C10.5372 4.46563 10.6466 4.26773 11.0354 4.05861C11.4691 3.82564 11.6978 3.56459 11.7933 3.19126C11.8298 3.05091 11.834 2.79828 11.8003 2.67337C11.6852 2.2397 11.3694 1.94356 10.8979 1.82707C10.7491 1.79058 10.4544 1.79339 10.314 1.83409C9.98699 1.92812 9.7091 2.16531 9.57297 2.46566C9.50419 2.61723 9.47753 2.74776 9.47753 2.93021C9.47753 3.166 9.51262 3.29793 9.64454 3.56038C9.74279 3.75546 9.76384 3.83686 9.76384 4.00528C9.76244 4.2956 9.65 4.68865 9.20839 5.94091L9.88751 6.34365ZM9.61554 7.27553L8.87157 6.83433C8.75307 7.10623 8.66282 7.24006 8.54982 7.34418C8.45158 7.43681 8.39123 7.47049 8.34913 7.45926C8.31685 7.45084 8.15404 7.30488 7.76668 6.93576C7.44361 6.62831 7.1363 6.34973 6.85443 6.10846C6.76411 6.19671 6.70634 6.31772 6.70634 6.4582V7.02746C6.84651 7.15263 6.97418 7.27698 7.08038 7.39189C7.27406 7.60242 7.50563 7.9168 7.58844 8.0796L7.62633 8.15539L7.59826 8.241C7.47475 8.61573 7.56317 9.04099 7.83264 9.37502C8.05018 9.64168 8.31123 9.82414 8.6186 9.92238C8.75052 9.96448 9.01578 9.97571 9.14069 9.94343C9.42139 9.87185 9.71051 9.62063 9.86629 9.31046C10.067 8.91327 10.0179 8.39258 9.747 8.03609C9.65858 7.92101 9.64174 7.88873 9.61086 7.78206C9.57998 7.67821 9.57998 7.46628 9.60946 7.30628C9.61133 7.29639 9.61335 7.28614 9.61554 7.27553ZM1.8945 1.98426C1.93379 1.90988 1.99414 1.85374 2.05449 1.8369C2.24677 1.78216 2.5822 1.94497 2.62852 2.11479C2.7001 2.38426 2.2987 2.66636 2.05169 2.5218C1.97309 2.47548 1.91835 2.41373 1.88046 2.32952C1.84397 2.24671 1.85099 2.06707 1.8945 1.98426ZM6.0839 2.5246C6.11337 2.43057 6.18074 2.32531 6.23969 2.28321C6.30004 2.2397 6.4053 2.23549 6.49793 2.27338C6.6481 2.33233 6.79687 2.51197 6.79687 2.63408C6.79687 2.79688 6.54284 2.98635 6.30705 2.99758C6.18074 3.0046 6.13022 2.98074 6.08671 2.89512C6.05162 2.82355 6.05022 2.63408 6.0839 2.5246ZM10.3323 2.78986C10.3701 2.68881 10.4333 2.6018 10.4922 2.56671C10.5386 2.53724 10.6312 2.53162 10.6986 2.55127C10.86 2.60039 11.0354 2.79407 11.0354 2.92179C11.0354 3.02425 10.9203 3.15477 10.7561 3.23617C10.6691 3.27828 10.6326 3.2881 10.5456 3.29231C10.4193 3.29933 10.3687 3.27547 10.3252 3.18986C10.2859 3.10986 10.2887 2.89793 10.3323 2.78986ZM4.08253 8.35609C4.08113 8.22276 4.17376 8.11188 4.36463 8.02346C4.49515 7.96171 4.6341 7.95188 4.70568 8.00101C4.73234 8.01925 4.77304 8.06416 4.7955 8.10065C4.84883 8.18767 4.86146 8.34346 4.82638 8.46696C4.7969 8.56802 4.70147 8.67047 4.61305 8.69714C4.45726 8.74345 4.29867 8.70135 4.1906 8.58486C4.112 8.49784 4.08393 8.4403 4.08253 8.35609ZM8.45579 8.7631C8.44877 8.63117 8.48526 8.55959 8.59193 8.49924C8.6593 8.46135 8.68175 8.45574 8.80947 8.45293C8.94841 8.44872 8.99052 8.45433 9.05508 8.48942C9.08596 8.50486 9.08736 8.51188 9.08175 8.62696C9.07754 8.72942 9.06911 8.7617 9.03543 8.82485C8.96245 8.95818 8.84456 9.01853 8.68175 9.0045C8.5807 8.99748 8.51053 8.96099 8.48246 8.90345C8.47123 8.88099 8.46 8.81784 8.45579 8.7631Z" fill="white"/>
<path fill-rule="evenodd" clip-rule="evenodd" d="M6.05255 7.13717C6.05255 6.07456 7.22106 5.42645 8.12249 5.98908L11.7332 8.24273C12.5822 8.77266 12.5822 10.009 11.7332 10.5389L8.12249 12.7925C7.22106 13.3552 6.05255 12.7071 6.05255 11.6444V7.13717ZM7.64477 6.75447C7.3443 6.56693 6.95479 6.78296 6.95479 7.13717V11.6444C6.95479 11.9987 7.3443 12.2147 7.64477 12.0272L11.2555 9.77347C11.5385 9.5969 11.5385 9.18477 11.2555 9.00812L7.64477 6.75447Z" fill="#57965C"/>
<path d="M6.95477 7.1372C6.95477 6.783 7.34428 6.56697 7.64475 6.75451L11.2555 9.00815C11.5385 9.1848 11.5385 9.59692 11.2555 9.77358L7.64475 12.0272C7.34428 12.2148 6.95477 11.9987 6.95477 11.6445V7.1372Z" fill="#253627"/>
</svg>
