<svg width="16" height="16" viewBox="0 0 16 16" fill="none" xmlns="http://www.w3.org/2000/svg">
<g clip-path="url(#clip0_8_331)">
<path d="M3.16089 2.75733C3.456 2.80888 3.712 2.94399 3.92 3.15377C4.22045 3.45955 4.35556 3.81866 4.33245 4.25244C4.32178 4.47644 4.27733 4.64711 4.17245 4.88177C4.064 5.12355 4.032 5.25333 4.032 5.45777C4.032 5.87377 4.22756 6.52088 5.05422 8.84444C5.43467 9.91644 5.584 10.3111 5.60356 10.3111C5.63022 10.3111 5.77956 10.0658 5.86845 9.87377C6.01245 9.57155 6.128 9.26222 6.48178 8.23999C6.83911 7.21066 6.96889 6.78399 7.03111 6.42844C7.08445 6.11555 7.05245 5.92711 6.89245 5.60711C6.83911 5.50044 6.77333 5.34577 6.74489 5.26222C6.69867 5.12177 6.69511 5.09155 6.69333 4.82666C6.69333 4.54933 6.69511 4.53688 6.752 4.37333C7.05778 3.49333 8.016 3.13422 8.88889 3.57333C9.25867 3.75999 9.536 4.10311 9.62845 4.49244C9.67111 4.66666 9.66578 4.98311 9.61956 5.15911C9.50578 5.59288 9.21422 5.94488 8.76445 6.18844C8.52089 6.32177 8.42489 6.38577 8.32533 6.48533C8.09956 6.71111 7.91822 7.09155 7.584 8.03911L7.50578 8.26488L7.712 8.41066C8.27911 8.80888 9.04 9.45777 9.88622 10.2631C10.3769 10.7307 10.5831 10.9155 10.624 10.9262C10.6773 10.9404 10.7538 10.8978 10.8782 10.7804C11.1271 10.5511 11.2889 10.208 11.7031 9.02933C12.2702 7.42222 12.4142 6.92088 12.416 6.55111C12.416 6.33777 12.3893 6.23466 12.2649 5.98755C12.0978 5.65511 12.0533 5.48799 12.0533 5.18933C12.0533 4.95822 12.0871 4.79288 12.1742 4.60088C12.3467 4.22044 12.6987 3.91999 13.1129 3.80088C13.2907 3.74933 13.664 3.74577 13.8524 3.79199C14.4498 3.93955 14.8498 4.31466 14.9956 4.86399C15.0382 5.02222 15.0329 5.34222 14.9867 5.51999C14.8658 5.99288 14.576 6.32355 14.0267 6.61866C13.5342 6.88355 13.3956 7.13422 12.8267 8.76444C12.48 9.76355 12.2827 10.4035 12.2204 10.7324C12.1831 10.9351 12.1831 11.2035 12.2222 11.3351C12.2613 11.4702 12.2827 11.5111 12.3947 11.6569C12.7378 12.1084 12.8 12.768 12.5458 13.2711C12.3484 13.664 11.9822 13.9822 11.6267 14.0729C11.4684 14.1138 11.1324 14.0996 10.9653 14.0462C10.576 13.9218 10.2453 13.6907 9.96978 13.3529C9.62845 12.9298 9.51645 12.3911 9.67289 11.9164L9.70845 11.808L9.66045 11.712C9.55556 11.5058 9.26222 11.1075 9.01689 10.8409C8.75733 10.56 8.39645 10.2347 8.016 9.94311C7.70311 9.70133 7.15733 9.36711 7.12889 9.39733C7.10578 9.42399 6.99378 9.78666 6.91378 10.0978C6.85333 10.3378 6.83733 10.4302 6.83022 10.6062C6.81956 10.8782 6.83733 10.9529 6.97067 11.2373C7.02933 11.3635 7.09333 11.5271 7.11111 11.6018C7.17867 11.8667 7.17511 12.1867 7.10222 12.4711C7.03467 12.7307 6.85156 13.0453 6.67556 13.2053C6.30045 13.5484 5.59289 13.5876 5.03111 13.296C4.73245 13.1413 4.53689 12.9458 4.4 12.6667C4.24356 12.3484 4.19556 12.0018 4.26489 11.6942C4.32533 11.4347 4.47645 11.1502 4.63822 10.9973C4.66845 10.9671 4.69333 10.9298 4.69333 10.9102C4.69333 10.8693 4.51378 10.3307 4.34667 9.86666C4.28267 9.68533 4.19378 9.43999 4.14933 9.31911C3.46133 7.40977 3.13956 6.60622 2.87467 6.14399C2.73245 5.89155 2.59911 5.74755 2.44089 5.67288C2.16 5.53955 1.67289 5.17155 1.49333 4.95644C1.26222 4.68088 1.25689 4.49777 1.47022 3.87555C1.60711 3.47199 1.75645 3.22133 1.95022 3.07733C2.09067 2.97244 2.37689 2.83733 2.56 2.79111C2.73067 2.74666 3.01689 2.73066 3.16089 2.75733ZM2.65067 3.80444C2.57422 3.82577 2.49778 3.89688 2.448 3.99111C2.39289 4.09599 2.384 4.32355 2.43022 4.42844C2.47822 4.53511 2.54756 4.61333 2.64711 4.67199C2.96 4.85511 3.46845 4.49777 3.37778 4.15644C3.31911 3.94133 2.89422 3.73511 2.65067 3.80444ZM7.952 4.36977C7.87733 4.42311 7.792 4.55644 7.75467 4.67555C7.712 4.81422 7.71378 5.05422 7.75822 5.14488C7.81333 5.25333 7.87733 5.28355 8.03733 5.27466C8.336 5.26044 8.65778 5.02044 8.65778 4.81422C8.65778 4.65955 8.46933 4.43199 8.27911 4.35733C8.16178 4.30933 8.02845 4.31466 7.952 4.36977ZM13.3387 4.72888C13.264 4.77333 13.184 4.88355 13.136 5.01155C13.0809 5.14844 13.0773 5.41688 13.1271 5.51822C13.1822 5.62666 13.2462 5.65688 13.4062 5.64799C13.5164 5.64266 13.5627 5.63022 13.6729 5.57688C13.8809 5.47377 14.0267 5.30844 14.0267 5.17866C14.0267 5.01688 13.8044 4.77155 13.6 4.70933C13.5147 4.68444 13.3973 4.69155 13.3387 4.72888ZM5.57689 11.6409C5.33511 11.7529 5.21778 11.8933 5.21956 12.0622C5.22133 12.1689 5.25689 12.2418 5.35645 12.352C5.49333 12.4995 5.69422 12.5529 5.89156 12.4942C6.00356 12.4604 6.12445 12.3307 6.16178 12.2027C6.20622 12.0462 6.19022 11.8489 6.12267 11.7387C6.09422 11.6924 6.04267 11.6355 6.00889 11.6124C5.91822 11.5502 5.74222 11.5627 5.57689 11.6409ZM10.9316 12.2435C10.7964 12.32 10.7502 12.4107 10.7591 12.5778C10.7644 12.6471 10.7787 12.7271 10.7929 12.7556C10.8284 12.8284 10.9173 12.8747 11.0453 12.8836C11.2516 12.9013 11.4009 12.8249 11.4933 12.656C11.536 12.576 11.5467 12.5351 11.552 12.4053C11.5591 12.2595 11.5573 12.2507 11.5182 12.2311C11.4364 12.1867 11.3831 12.1795 11.2071 12.1849C11.0453 12.1884 11.0169 12.1955 10.9316 12.2435Z" fill="white"/>
</g>
<defs>
<clipPath id="clip0_8_331">
<rect width="16" height="16" fill="white"/>
</clipPath>
</defs>
</svg>
