<svg width="13" height="13" viewBox="0 0 13 13" fill="none" xmlns="http://www.w3.org/2000/svg">
<path d="M2.56821 2.24033C2.80799 2.28222 3.01599 2.392 3.18499 2.56244C3.4291 2.81089 3.53887 3.10266 3.5201 3.45511C3.51143 3.63711 3.47532 3.77578 3.3901 3.96644C3.30199 4.16289 3.27599 4.26833 3.27599 4.43444C3.27599 4.77244 3.43487 5.29822 4.10654 7.18611C4.41565 8.05711 4.53699 8.37778 4.55287 8.37778C4.57454 8.37778 4.69587 8.17844 4.7681 8.02244C4.8851 7.77689 4.97899 7.52555 5.26643 6.695C5.55676 5.85866 5.66221 5.512 5.71276 5.22311C5.7561 4.96889 5.7301 4.81578 5.6001 4.55578C5.55676 4.46911 5.50332 4.34344 5.48021 4.27555C5.44265 4.16144 5.43976 4.13689 5.43832 3.92166C5.43832 3.69633 5.43976 3.68622 5.48599 3.55333C5.73443 2.83833 6.51299 2.54655 7.22221 2.90333C7.52265 3.055 7.74799 3.33378 7.8231 3.65011C7.85776 3.79166 7.85343 4.04878 7.81587 4.19178C7.72343 4.54422 7.48654 4.83022 7.1211 5.02811C6.92321 5.13644 6.84521 5.18844 6.76432 5.26933C6.58087 5.45278 6.43354 5.76189 6.16199 6.53177L6.09843 6.71522L6.26599 6.83366C6.72676 7.15722 7.34499 7.68444 8.03254 8.33878C8.43121 8.71866 8.59876 8.86889 8.63199 8.87755C8.67532 8.88911 8.73743 8.85444 8.83854 8.75911C9.04076 8.57278 9.17221 8.294 9.50876 7.33633C9.96954 6.03055 10.0865 5.62322 10.088 5.32278C10.088 5.14944 10.0663 5.06566 9.96521 4.86489C9.82943 4.59478 9.79332 4.459 9.79332 4.21633C9.79332 4.02855 9.82076 3.89422 9.89154 3.73822C10.0317 3.42911 10.3177 3.185 10.6542 3.08822C10.7987 3.04633 11.102 3.04344 11.2551 3.081C11.7404 3.20089 12.0654 3.50566 12.1839 3.952C12.2185 4.08055 12.2142 4.34055 12.1767 4.485C12.0784 4.86922 11.843 5.13789 11.3967 5.37766C10.9965 5.59289 10.8839 5.79655 10.4217 7.12111C10.14 7.93289 9.97965 8.45289 9.9291 8.72011C9.89876 8.88478 9.89876 9.10289 9.93054 9.20978C9.96232 9.31955 9.97965 9.35278 10.0707 9.47122C10.3494 9.83811 10.4 10.374 10.1934 10.7828C10.0331 11.102 9.73554 11.3606 9.44665 11.4342C9.3181 11.4674 9.0451 11.4559 8.90932 11.4126C8.59299 11.3114 8.32432 11.1237 8.10043 10.8492C7.8231 10.5054 7.7321 10.0678 7.85921 9.68211L7.8881 9.594L7.8491 9.516C7.76387 9.34844 7.52554 9.02489 7.32621 8.80822C7.11532 8.58 6.8221 8.31566 6.51299 8.07878C6.25876 7.88233 5.81532 7.61078 5.79221 7.63533C5.77343 7.657 5.68243 7.95166 5.61743 8.20444C5.56832 8.39944 5.55532 8.47455 5.54954 8.61755C5.54087 8.83855 5.55532 8.89922 5.66365 9.13033C5.71132 9.23289 5.76332 9.36578 5.77776 9.42644C5.83265 9.64166 5.82976 9.90166 5.77054 10.1328C5.71565 10.3437 5.56687 10.5993 5.42387 10.7293C5.1191 11.0081 4.54421 11.0399 4.08776 10.803C3.8451 10.6773 3.68621 10.5184 3.57499 10.2917C3.44787 10.0331 3.40887 9.75144 3.46521 9.50155C3.51432 9.29066 3.6371 9.05955 3.76854 8.93533C3.7931 8.91078 3.81332 8.88044 3.81332 8.86455C3.81332 8.83133 3.66743 8.39366 3.53165 8.01666C3.47965 7.86933 3.40743 7.67 3.37132 7.57178C2.81232 6.02044 2.55087 5.36755 2.33565 4.992C2.2201 4.78689 2.11176 4.66989 1.98321 4.60922C1.75499 4.50089 1.35921 4.20189 1.21332 4.02711C1.02554 3.80322 1.02121 3.65444 1.19454 3.14889C1.30576 2.821 1.4271 2.61733 1.58454 2.50033C1.69865 2.41511 1.93121 2.30533 2.07999 2.26778C2.21865 2.23166 2.45121 2.21866 2.56821 2.24033ZM2.15365 3.09111C2.09154 3.10844 2.02943 3.16622 1.98899 3.24278C1.94421 3.328 1.93699 3.51289 1.97454 3.59811C2.01354 3.68478 2.06987 3.74833 2.15076 3.796C2.40499 3.94478 2.8181 3.65444 2.74443 3.37711C2.69676 3.20233 2.35154 3.03478 2.15365 3.09111ZM6.46099 3.55044C6.40032 3.59378 6.33099 3.70211 6.30065 3.79889C6.26599 3.91155 6.26743 4.10655 6.30354 4.18022C6.34832 4.26833 6.40032 4.29289 6.53032 4.28566C6.77299 4.27411 7.03443 4.07911 7.03443 3.91155C7.03443 3.78589 6.88132 3.601 6.72676 3.54033C6.63143 3.50133 6.5231 3.50566 6.46099 3.55044ZM10.8377 3.84222C10.777 3.87833 10.712 3.96789 10.673 4.07189C10.6282 4.18311 10.6253 4.40122 10.6658 4.48355C10.7105 4.57166 10.7625 4.59622 10.8925 4.589C10.9821 4.58466 11.0197 4.57455 11.1092 4.53122C11.2782 4.44744 11.3967 4.31311 11.3967 4.20766C11.3967 4.07622 11.2161 3.87689 11.05 3.82633C10.9807 3.80611 10.8853 3.81189 10.8377 3.84222ZM4.53121 9.45822C4.33476 9.54922 4.23943 9.66333 4.24087 9.80055C4.24232 9.88722 4.27121 9.94644 4.3521 10.036C4.46332 10.1559 4.62654 10.1992 4.78687 10.1516C4.87787 10.1241 4.9761 10.0187 5.00643 9.91466C5.04254 9.78755 5.02954 9.62722 4.97465 9.53766C4.95154 9.50011 4.90965 9.45389 4.88221 9.43511C4.80854 9.38455 4.66554 9.39466 4.53121 9.45822ZM8.88187 9.94789C8.7721 10.01 8.73454 10.0837 8.74176 10.2194C8.7461 10.2758 8.75765 10.3408 8.76921 10.3639C8.7981 10.4231 8.87032 10.4607 8.97432 10.4679C9.14187 10.4823 9.26321 10.4202 9.33832 10.283C9.37299 10.218 9.38165 10.1848 9.38599 10.0793C9.39176 9.96089 9.39032 9.95366 9.35854 9.93778C9.2921 9.90166 9.24876 9.89589 9.10576 9.90022C8.97432 9.90311 8.95121 9.90889 8.88187 9.94789Z" fill="white"/>
</svg>
